<svg width="16" height="17" viewBox="0 0 16 17" fill="none" xmlns="http://www.w3.org/2000/svg">
    <path
        d="M14 8.45031C14.0023 9.33022 13.7967 10.1982 13.4 10.9836C12.9296 11.9248 12.2065 12.7164 11.3116 13.2698C10.4168 13.8232 9.3855 14.1166 8.33333 14.117C7.45342 14.1193 6.58541 13.9137 5.8 13.517L2 14.7836L3.26667 10.9836C2.86995 10.1982 2.66437 9.33022 2.66667 8.45031C2.66707 7.39815 2.96041 6.36688 3.51381 5.47201C4.06722 4.57714 4.85884 3.85402 5.8 3.38364C6.58541 2.98693 7.45342 2.78135 8.33333 2.78364H8.66667C10.0562 2.8603 11.3687 3.44682 12.3528 4.43088C13.3368 5.41495 13.9233 6.72741 14 8.11698V8.45031Z"
        stroke="#1D75DD" stroke-linecap="round" stroke-linejoin="round" />
</svg>