<svg width="27" height="27" viewBox="0 0 27 27" fill="none" xmlns="http://www.w3.org/2000/svg">
<path d="M13.1393 14.5748C13.7328 14.5748 14.214 14.0936 14.214 13.5C14.214 12.9064 13.7328 12.4253 13.1393 12.4253C12.5457 12.4253 12.0645 12.9064 12.0645 13.5C12.0645 14.0936 12.5457 14.5748 13.1393 14.5748Z" stroke="#989BA1" stroke-width="2" stroke-linecap="round" stroke-linejoin="round"/>
<path d="M13.1393 7.05154C13.7328 7.05154 14.214 6.57036 14.214 5.9768C14.214 5.38323 13.7328 4.90205 13.1393 4.90205C12.5457 4.90205 12.0645 5.38323 12.0645 5.9768C12.0645 6.57036 12.5457 7.05154 13.1393 7.05154Z" stroke="#989BA1" stroke-width="2" stroke-linecap="round" stroke-linejoin="round"/>
<path d="M13.1393 22.098C13.7328 22.098 14.214 21.6168 14.214 21.0232C14.214 20.4297 13.7328 19.9485 13.1393 19.9485C12.5457 19.9485 12.0645 20.4297 12.0645 21.0232C12.0645 21.6168 12.5457 22.098 13.1393 22.098Z" stroke="#989BA1" stroke-width="2" stroke-linecap="round" stroke-linejoin="round"/>
</svg>
