<svg width="16" height="17" viewBox="0 0 16 17" fill="none" xmlns="http://www.w3.org/2000/svg">
<g clip-path="url(#clip0_212_102)">
<path d="M8.14667 2.31288H7.85333C7.49971 2.31288 7.16057 2.45336 6.91053 2.7034C6.66048 2.95345 6.52 3.29259 6.52 3.64621V3.76621C6.51976 4.00003 6.45804 4.22967 6.34103 4.4321C6.22401 4.63454 6.05583 4.80264 5.85333 4.91955L5.56667 5.08621C5.36398 5.20324 5.13405 5.26485 4.9 5.26485C4.66595 5.26485 4.43603 5.20324 4.23333 5.08621L4.13333 5.03288C3.82738 4.85639 3.46389 4.80851 3.12267 4.89975C2.78145 4.99099 2.49037 5.2139 2.31333 5.51955L2.16667 5.77288C1.99018 6.07884 1.9423 6.44232 2.03354 6.78355C2.12478 7.12477 2.34769 7.41585 2.65333 7.59288L2.75333 7.65955C2.95485 7.77589 3.12241 7.94294 3.23937 8.1441C3.35632 8.34526 3.4186 8.57353 3.42 8.80621V9.14621C3.42093 9.38116 3.35977 9.61218 3.2427 9.81589C3.12563 10.0196 2.95681 10.1887 2.75333 10.3062L2.65333 10.3662C2.34769 10.5432 2.12478 10.8343 2.03354 11.1755C1.9423 11.5168 1.99018 11.8803 2.16667 12.1862L2.31333 12.4395C2.49037 12.7452 2.78145 12.9681 3.12267 13.0593C3.46389 13.1506 3.82738 13.1027 4.13333 12.9262L4.23333 12.8729C4.43603 12.7559 4.66595 12.6942 4.9 12.6942C5.13405 12.6942 5.36398 12.7559 5.56667 12.8729L5.85333 13.0395C6.05583 13.1565 6.22401 13.3246 6.34103 13.527C6.45804 13.7294 6.51976 13.9591 6.52 14.1929V14.3129C6.52 14.6665 6.66048 15.0056 6.91053 15.2557C7.16057 15.5057 7.49971 15.6462 7.85333 15.6462H8.14667C8.50029 15.6462 8.83943 15.5057 9.08948 15.2557C9.33952 15.0056 9.48 14.6665 9.48 14.3129V14.1929C9.48024 13.9591 9.54196 13.7294 9.65898 13.527C9.77599 13.3246 9.94418 13.1565 10.1467 13.0395L10.4333 12.8729C10.636 12.7559 10.866 12.6942 11.1 12.6942C11.334 12.6942 11.564 12.7559 11.7667 12.8729L11.8667 12.9262C12.1726 13.1027 12.5361 13.1506 12.8773 13.0593C13.2186 12.9681 13.5096 12.7452 13.6867 12.4395L13.8333 12.1795C14.0098 11.8736 14.0577 11.5101 13.9665 11.1689C13.8752 10.8277 13.6523 10.5366 13.3467 10.3595L13.2467 10.3062C13.0432 10.1887 12.8744 10.0196 12.7573 9.81589C12.6402 9.61218 12.5791 9.38116 12.58 9.14621V8.81288C12.5791 8.57793 12.6402 8.34691 12.7573 8.14321C12.8744 7.9395 13.0432 7.77035 13.2467 7.65288L13.3467 7.59288C13.6523 7.41585 13.8752 7.12477 13.9665 6.78355C14.0577 6.44232 14.0098 6.07884 13.8333 5.77288L13.6867 5.51955C13.5096 5.2139 13.2186 4.99099 12.8773 4.89975C12.5361 4.80851 12.1726 4.85639 11.8667 5.03288L11.7667 5.08621C11.564 5.20324 11.334 5.26485 11.1 5.26485C10.866 5.26485 10.636 5.20324 10.4333 5.08621L10.1467 4.91955C9.94418 4.80264 9.77599 4.63454 9.65898 4.4321C9.54196 4.22967 9.48024 4.00003 9.48 3.76621V3.64621C9.48 3.29259 9.33952 2.95345 9.08948 2.7034C8.83943 2.45336 8.50029 2.31288 8.14667 2.31288V2.31288Z" stroke="#555758" stroke-linecap="round" stroke-linejoin="round"/>
<path d="M8 10.9795C9.10457 10.9795 10 10.0841 10 8.97955C10 7.87498 9.10457 6.97955 8 6.97955C6.89543 6.97955 6 7.87498 6 8.97955C6 10.0841 6.89543 10.9795 8 10.9795Z" stroke="#555758" stroke-linecap="round" stroke-linejoin="round"/>
</g>
<defs>
<clipPath id="clip0_212_102">
<rect width="16" height="16" fill="white" transform="translate(0 0.979547)"/>
</clipPath>
</defs>
</svg>
